<?xml version="1.0"?>
<svg version="1.1" xmlns="http://www.w3.org/2000/svg" xmlns:xlink="http://www.w3.org/1999/xlink" width="512" height="512">
    <desc iVinci="yes" version="4.6" gridStep="20" showGrid="no" snapToGrid="no" codePlatform="0"/>
    <g id="Layer1" name="Layer 2" visibility="hidden" opacity="1">
        <g id="Shape1">
            <desc shapeID="1" type="0" basicInfo-basicType="0" basicInfo-roundedRectRadius="12" basicInfo-polygonSides="6" basicInfo-starPoints="5" bounding="rect(-120.856,-69.9093,241.713,139.819)" text="" font-familyName="Helvetica" font-pixelSize="20" font-bold="0" font-underline="0" font-alignment="1" strokeStyle="0" markerStart="0" markerEnd="0" shadowEnabled="0" shadowOffsetX="0" shadowOffsetY="2" shadowBlur="4" shadowOpacity="160" blurEnabled="0" blurRadius="4" transform="matrix(0.668559,0.332675,-0.434773,0.873741,414.216,217.396)" pers-center="0,0" pers-size="0,0" pers-start="0,0" pers-end="0,0" locked="0" mesh="" flag=""/>
            <path id="shapePath1" d="M392.435,185.313 C402.617,172.393 416.319,162.385 429.374,159.616 C452.643,158.113 474.906,167.011 487.522,186.915 C506.792,206.859 493.328,246.488 474.602,269.873 C476.157,270.101 478.48,269.622 479.165,271.598 C478.747,274.115 477.225,277.173 475.035,279.899 C476.706,280.73 478.261,280.959 479.916,280.147 C491.702,272.386 479.731,283.871 475.986,286.368 C472.242,288.865 468.119,280.965 465.377,283.961 C460.412,286.396 456.379,288.057 451.397,288.848 C449.625,289.057 447.853,289.265 446.082,289.474 L445.413,289.141 C441.535,289.391 432.281,286.583 428.286,286.23 C428.52,287.436 434.013,291.099 434.246,292.305 C463.446,307.38 410.875,305.748 417.198,283.822 C408.741,280.703 392.77,259.195 385.834,253.019 C386.419,256.035 396.272,275.589 395.419,278.98 C377.583,280.461 338.626,235.394 370.873,230.248 L371.324,231.018 C368.584,223.114 369.021,211.34 372.132,200.897 C371.798,200.731 370.912,200.835 370.578,200.669 C363.841,203.312 356,183.099 351.739,178.253 L353.197,181.12 C352.863,180.953 352.529,180.787 352.412,180.184 L353.298,180.079 C349.186,179.124 346.411,178.833 347.028,185.135 C341.212,180.061 334.711,173.011 341.032,161.985 C355.863,137.208 401.596,142.523 380.979,176.413 C381.23,179.262 378.605,182.861 379.072,185.274 C379.072,185.274 379.072,185.274 378.738,185.108 L379.072,185.274 C382.567,179.928 387.417,177.519 392.414,178.371 C393.434,180.513 393.565,182.13 393.147,184.647 L392.435,185.313 M372.511,227.793 L373.68,233.825 L372.511,227.793 Z" style="stroke:#323232;stroke-opacity:1;stroke-width:1;stroke-linejoin:miter;stroke-miterlimit:2;stroke-linecap:round;fill-rule:evenodd;fill:#969696;fill-opacity:1;"/>
        </g>
        <g id="Shape2">
            <desc shapeID="2" type="2" basicInfo-basicType="0" basicInfo-roundedRectRadius="12" basicInfo-polygonSides="6" basicInfo-starPoints="5" bounding="rect(-8.8025,-11.2111,17.605,22.4222)" text="#" font-familyName="Monaco" font-pixelSize="156" font-bold="1" font-underline="0" font-alignment="1" strokeStyle="0" markerStart="0" markerEnd="0" shadowEnabled="0" shadowOffsetX="0" shadowOffsetY="2" shadowBlur="4" shadowOpacity="160" blurEnabled="0" blurRadius="4" transform="matrix(0.961343,0.275352,-0.275352,0.961343,443.286,208.535)" pers-center="0,0" pers-size="0,0" pers-start="0,0" pers-end="0,0" locked="0" mesh="" flag=""/>
            <path id="shapePath2" d="M396.096,222.98 L399.032,212.728 L413.385,216.839 L430.06,189.05 L407.652,182.632 L410.568,172.453 L435.538,179.606 L453.397,149.62 L464.089,152.682 L446.229,182.668 L466.953,188.603 L485.178,158.723 L495.869,161.785 L477.79,191.708 L490.093,195.231 L487.177,205.41 L472.019,201.068 L455.417,228.879 L478.557,235.506 L475.62,245.758 L449.625,238.312 L432.489,266.604 L421.651,263.499 L438.934,235.25 L418.503,229.398 L401.66,257.773 L390.822,254.669 L407.739,226.315 L396.096,222.98 M424.149,219.923 L444.653,225.795 L461.548,198.069 L440.605,192.07 L424.149,219.923 Z" style="stroke:none;fill-rule:nonzero;fill:#000000;fill-opacity:1;"/>
        </g>
    </g>
    <g id="Layer2" name="Layer 1" visibility="hidden" opacity="1">
        <g id="Shape3">
            <desc shapeID="3" type="0" basicInfo-basicType="0" basicInfo-roundedRectRadius="12" basicInfo-polygonSides="6" basicInfo-starPoints="5" bounding="rect(-77.0325,-60.7282,154.067,121.458)" text="" font-familyName="Helvetica" font-pixelSize="20" font-bold="0" font-underline="0" font-alignment="1" strokeStyle="0" markerStart="0" markerEnd="0" shadowEnabled="0" shadowOffsetX="0" shadowOffsetY="2" shadowBlur="4" shadowOpacity="160" blurEnabled="0" blurRadius="4" transform="matrix(1,0,0,1,312.285,120.402)" pers-center="0,0" pers-size="0,0" pers-start="0,0" pers-end="0,0" locked="0" mesh="" flag=""/>
            <path id="shapePath3" d="M246.212,158.67 C224.626,133.16 236.906,86.9586 265.794,69.4001 C292.771,57.6023 325.105,55.7371 352.184,68.2482 C403.883,82.4726 395.64,168.696 363.703,181.131 " style="stroke:#323232;stroke-opacity:1;stroke-width:1;stroke-linejoin:miter;stroke-miterlimit:2;stroke-linecap:round;fill-rule:evenodd;fill:#969696;fill-opacity:1;"/>
        </g>
        <g id="Shape4">
            <desc shapeID="4" type="0" basicInfo-basicType="0" basicInfo-roundedRectRadius="12" basicInfo-polygonSides="6" basicInfo-starPoints="5" bounding="rect(-21.152,-10.405,42.3039,20.8099)" text="" font-familyName="Helvetica" font-pixelSize="20" font-bold="0" font-underline="0" font-alignment="1" strokeStyle="0" markerStart="0" markerEnd="0" shadowEnabled="0" shadowOffsetX="0" shadowOffsetY="2" shadowBlur="4" shadowOpacity="160" blurEnabled="0" blurRadius="4" transform="matrix(0.960359,0.278767,-0.278767,0.960359,345.139,190.079)" pers-center="0,0" pers-size="0,0" pers-start="0,0" pers-end="0,0" locked="0" mesh="" flag=""/>
            <path id="shapePath4" d="M325.799,180.828 C317.352,216.473 399.436,189.609 351.081,188.766 C347.813,186.357 345.401,183.152 345.425,179.328 " style="stroke:#323232;stroke-opacity:1;stroke-width:1;stroke-linejoin:miter;stroke-miterlimit:2;stroke-linecap:round;fill-rule:evenodd;fill:#969696;fill-opacity:1;"/>
        </g>
        <g id="Shape5">
            <desc shapeID="5" type="0" basicInfo-basicType="0" basicInfo-roundedRectRadius="12" basicInfo-polygonSides="6" basicInfo-starPoints="5" bounding="rect(-31.6849,-18.3544,63.3698,36.7087)" text="" font-familyName="Helvetica" font-pixelSize="20" font-bold="0" font-underline="0" font-alignment="1" strokeStyle="0" markerStart="0" markerEnd="0" shadowEnabled="0" shadowOffsetX="0" shadowOffsetY="2" shadowBlur="4" shadowOpacity="160" blurEnabled="0" blurRadius="4" transform="matrix(1,0,0,1,264.633,179.328)" pers-center="0,0" pers-size="0,0" pers-start="0,0" pers-end="0,0" locked="0" mesh="" flag=""/>
            <path id="shapePath5" d="M238.149,160.974 C214.923,191.982 275.82,204.163 296.318,194.378 C294.873,188.427 286.555,186.465 287.103,179.98 " style="stroke:#323232;stroke-opacity:1;stroke-width:1;stroke-linejoin:miter;stroke-miterlimit:2;stroke-linecap:round;fill-rule:evenodd;fill:#969696;fill-opacity:1;"/>
        </g>
        <g id="Shape6">
            <desc shapeID="6" type="0" basicInfo-basicType="0" basicInfo-roundedRectRadius="12" basicInfo-polygonSides="6" basicInfo-starPoints="5" bounding="rect(-29.9716,-23.9534,59.9432,47.9068)" text="" font-familyName="Helvetica" font-pixelSize="20" font-bold="0" font-underline="0" font-alignment="1" strokeStyle="0" markerStart="0" markerEnd="0" shadowEnabled="0" shadowOffsetX="0" shadowOffsetY="2" shadowBlur="4" shadowOpacity="160" blurEnabled="0" blurRadius="4" transform="matrix(1,0,0,1,191.475,106.496)" pers-center="0,0" pers-size="0,0" pers-start="0,0" pers-end="0,0" locked="0" mesh="" flag=""/>
            <path id="shapePath6" d="M221.447,116.627 C218.989,115.001 219.747,109.447 217.991,106.836 C222.719,66.3838 164.717,82.3214 161.55,112.019 C160.667,124.895 172.631,128.639 182.283,130.449 C172.298,118.828 200.747,125.856 203.017,115.475 C203.775,115.27 205.968,103.284 204.169,107.988 " style="stroke:#323232;stroke-opacity:1;stroke-width:1;stroke-linejoin:miter;stroke-miterlimit:2;stroke-linecap:round;fill-rule:evenodd;fill:#969696;fill-opacity:1;"/>
        </g>
        <g id="Shape7">
            <desc shapeID="7" type="0" basicInfo-basicType="0" basicInfo-roundedRectRadius="12" basicInfo-polygonSides="6" basicInfo-starPoints="5" bounding="rect(-17.566,-5.83792,35.132,11.676)" text="" font-familyName="Helvetica" font-pixelSize="20" font-bold="0" font-underline="0" font-alignment="1" strokeStyle="0" markerStart="0" markerEnd="0" shadowEnabled="0" shadowOffsetX="0" shadowOffsetY="2" shadowBlur="4" shadowOpacity="160" blurEnabled="0" blurRadius="4" transform="matrix(1,0,0,1,202.729,129.376)" pers-center="0,0" pers-size="0,0" pers-start="0,0" pers-end="0,0" locked="0" mesh="" flag=""/>
            <path id="shapePath7" d="M185.163,123.538 C192.942,126.148 213.983,140.232 220.295,133.329 " style="stroke:#323232;stroke-opacity:1;stroke-width:1;stroke-linejoin:miter;stroke-miterlimit:2;stroke-linecap:round;fill-rule:evenodd;fill:#969696;fill-opacity:1;"/>
        </g>
        <g id="Shape8">
            <desc shapeID="8" type="0" basicInfo-basicType="0" basicInfo-roundedRectRadius="12" basicInfo-polygonSides="6" basicInfo-starPoints="5" bounding="rect(-86.4271,-43.2187,172.853,86.4373)" text="" font-familyName="Helvetica" font-pixelSize="20" font-bold="0" font-underline="0" font-alignment="1" strokeStyle="0" markerStart="0" markerEnd="0" shadowEnabled="0" shadowOffsetX="0" shadowOffsetY="2" shadowBlur="4" shadowOpacity="160" blurEnabled="0" blurRadius="4" transform="matrix(1,0,0,1,306.722,146.078)" pers-center="0,0" pers-size="0,0" pers-start="0,0" pers-end="0,0" locked="0" mesh="" flag=""/>
            <path id="shapePath8" d="M244.989,164.484 C223.856,157.725 208.563,109.698 232.318,102.859 C234.815,104.399 236.746,106.435 237.501,109.194 C237.604,116.842 236.535,124.731 240.381,131.656 C274.06,172.219 344.811,185.754 386.092,150.085 C388.228,149.59 390.347,148.08 392.428,149.51 C393.438,152.699 393.506,157.223 391.852,160.452 C355.357,201.607 273.73,196.826 238.653,158.149 " style="stroke:#323232;stroke-opacity:1;stroke-width:1;stroke-linejoin:miter;stroke-miterlimit:2;stroke-linecap:round;fill-rule:evenodd;fill:#969696;fill-opacity:1;"/>
        </g>
        <g id="Shape9">
            <desc shapeID="9" type="0" basicInfo-basicType="0" basicInfo-roundedRectRadius="12" basicInfo-polygonSides="6" basicInfo-starPoints="5" bounding="rect(-9.96704,-8.70811,19.9341,17.4161)" text="" font-familyName="Helvetica" font-pixelSize="20" font-bold="0" font-underline="0" font-alignment="1" strokeStyle="0" markerStart="0" markerEnd="0" shadowEnabled="0" shadowOffsetX="0" shadowOffsetY="2" shadowBlur="4" shadowOpacity="160" blurEnabled="0" blurRadius="4" transform="matrix(1,0,0,1,393.148,160.974)" pers-center="0,0" pers-size="0,0" pers-start="0,0" pers-end="0,0" locked="0" mesh="" flag=""/>
            <path id="shapePath9" d="M391.82,158.739 C394.386,159.007 396.688,158.678 398.732,157.011 C407.846,144.445 400.358,160.345 397.58,164.498 C394.563,168.456 384.301,165.251 383.181,169.682 " style="stroke:#323232;stroke-opacity:1;stroke-width:1;stroke-linejoin:miter;stroke-miterlimit:2;stroke-linecap:round;fill-rule:evenodd;fill:#969696;fill-opacity:1;"/>
        </g>
        <g id="Shape10">
            <desc shapeID="10" type="0" basicInfo-basicType="0" basicInfo-roundedRectRadius="12" basicInfo-polygonSides="6" basicInfo-starPoints="5" bounding="rect(-22.5261,-14.8424,45.052,29.685)" text="" font-familyName="Helvetica" font-pixelSize="20" font-bold="0" font-underline="0" font-alignment="1" strokeStyle="0" markerStart="0" markerEnd="0" shadowEnabled="0" shadowOffsetX="0" shadowOffsetY="2" shadowBlur="4" shadowOpacity="160" blurEnabled="0" blurRadius="4" transform="matrix(1,0,0,1,208.786,119.113)" pers-center="0,0" pers-size="0,0" pers-start="0,0" pers-end="0,0" locked="0" mesh="" flag=""/>
            <path id="shapePath10" d="M186.26,123.686 C199.778,128.963 216.347,140.169 231.312,129.527 C224.343,123.985 210.611,94.7665 203.78,107.417 " style="stroke:#323232;stroke-opacity:1;stroke-width:1;stroke-linejoin:miter;stroke-miterlimit:2;stroke-linecap:round;fill-rule:evenodd;fill:#969696;fill-opacity:1;"/>
        </g>
    </g>
    <g id="Layer3" name="Layer 3" opacity="1">
        <g id="Shape11">
            <desc shapeID="11" type="0" basicInfo-basicType="0" basicInfo-roundedRectRadius="12" basicInfo-polygonSides="6" basicInfo-starPoints="5" bounding="rect(-71.465,-70.3364,142.93,140.672)" text="" font-familyName="Helvetica" font-pixelSize="20" font-bold="0" font-underline="0" font-alignment="1" strokeStyle="0" markerStart="0" markerEnd="0" shadowEnabled="0" shadowOffsetX="0" shadowOffsetY="2" shadowBlur="4" shadowOpacity="160" blurEnabled="0" blurRadius="4" transform="matrix(3.44248,0,0,3.4242,256,256)" pers-center="0,0" pers-size="0,0" pers-start="0,0" pers-end="0,0" locked="0" mesh="" flag=""/>
            <path id="shapePath11" d="M284.349,293.736 L363.304,297.836 L393.974,205.51 L312.231,201.308 L284.349,293.736 M177.358,157.417 C207.224,122.244 261.354,71.3947 302.286,66.8919 C352.491,61.369 393.181,66.8919 430.964,95.2473 L400.791,176.454 L321.811,172.038 L353.296,78.6317 L323.385,76.9638 L291.899,170.37 L207.042,165.25 L205.468,193.721 L282.453,198.725 L254.378,291.578 L184.343,288.242 L182.769,317.49 L244.933,319.932 L216.595,408.336 L246.507,411.672 L274.844,323.268 L353.824,327.686 L323.913,415.497 L353.824,418.833 L383.736,329.354 L471.207,335.25 L474.355,306.003 L393.181,300.998 L421.257,208.146 L480.39,211.482 L481.965,181.458 L430.702,178.123 L454.579,116.931 C543.007,197.423 492.937,347.031 425.093,430.84 C437.831,429.779 441.676,451.769 430.964,457.195 C421.271,464.115 442.934,473.563 449.896,469.172 C442.627,487.69 413.123,486.691 400.791,476.377 C388.474,466.075 346.739,473.133 308.225,469.172 C327.012,481.221 348.82,492.323 310.237,496.128 C286.994,498.419 242.92,497.521 261.299,457.195 C221.056,446.571 177.358,397.311 158.612,370.462 C134.184,374.386 204.523,450.15 188.524,457.195 C132.94,481.676 -36.3709,312.489 111.384,293.736 C109.22,280.835 104.282,220.862 116.107,195.326 C93.6907,178.646 67.3192,143.619 56.2835,126.939 C47.9831,132.706 34.2433,121.935 37.392,143.619 C18.5005,126.939 -1.9653,103.588 18.5005,66.8919 C64.1549,-16.5063 206.414,2.16234 141.868,113.916 C138.64,123.496 136.572,135.279 138.147,143.619 C149.167,125.271 167.358,110.608 179.078,120.267 C191.632,130.613 183.294,149.296 177.358,157.417 Z" style="stroke:none;fill-rule:evenodd;fill:#ffffff;fill-opacity:1;"/>
        </g>
    </g>
</svg>
