<?xml version="1.0" standalone="no"?>
<!DOCTYPE svg PUBLIC "-//W3C//DTD SVG 20010904//EN"
 "http://www.w3.org/TR/2001/REC-SVG-20010904/DTD/svg10.dtd">
<svg version="1.0" xmlns="http://www.w3.org/2000/svg"
 width="512.000000pt" height="512.000000pt" viewBox="0 0 512.000000 512.000000"
 preserveAspectRatio="xMidYMid meet">
<metadata>
Created by potrace 1.11, written by Peter Selinger 2001-2013
</metadata>
<g transform="translate(0.000000,512.000000) scale(0.100000,-0.100000)"
fill="#000000" stroke="none">
<path d="M975 4973 c-295 -26 -581 -195 -740 -438 -102 -156 -128 -229 -128
-370 -1 -81 3 -111 22 -157 31 -79 87 -160 168 -243 l68 -70 5 52 c7 66 24 83
87 88 28 1 64 6 80 9 28 6 33 2 99 -91 138 -195 356 -442 486 -551 l37 -31
-19 -56 c-21 -61 -29 -104 -46 -245 -4 -30 -7 -136 -7 -235 1 -169 5 -249 19
-387 6 -57 6 -57 -22 -63 -16 -3 -76 -17 -134 -31 -356 -85 -495 -302 -391
-612 58 -174 178 -356 347 -527 252 -255 482 -401 744 -473 37 -10 171 -10
204 0 96 30 72 99 -159 473 -140 226 -187 357 -140 391 10 8 22 14 25 14 3 0
23 -23 44 -51 201 -270 466 -528 691 -675 86 -56 249 -134 280 -134 18 0 19 4
-3 -61 -62 -183 14 -296 223 -329 70 -11 246 -14 300 -5 124 21 155 29 179 49
25 19 26 24 16 46 -6 14 -29 39 -51 55 -22 17 -46 36 -54 43 -7 6 -16 12 -19
12 -3 0 -25 13 -50 28 l-44 28 352 -3 c386 -4 469 -11 536 -48 119 -65 151
-77 229 -82 104 -7 177 14 237 69 24 22 44 46 44 52 0 6 -20 12 -48 13 -89 3
-168 56 -151 100 4 12 19 29 33 38 44 29 61 127 31 185 -17 32 -63 72 -75 65
-5 -3 -11 -1 -14 4 -4 5 9 29 27 53 151 199 287 419 395 640 40 81 72 149 72
152 0 3 11 29 24 58 52 116 160 457 180 568 2 14 9 52 15 85 33 183 39 267 36
476 -1 103 -5 190 -8 195 -2 5 -8 31 -11 58 -27 197 -122 442 -238 608 -54 79
-193 238 -207 238 -4 0 -20 -33 -36 -72 -15 -40 -33 -86 -40 -103 -7 -16 -18
-46 -25 -65 -7 -19 -19 -48 -26 -65 -20 -45 -114 -291 -114 -296 0 -3 19 -6
43 -8 23 -1 65 -4 92 -6 28 -2 106 -7 175 -11 109 -6 165 -10 193 -13 4 -1 5
-45 2 -98 -4 -54 -8 -120 -9 -148 l-3 -50 -49 1 c-27 1 -101 4 -164 8 -63 3
-162 9 -220 12 -58 3 -116 6 -130 7 -30 2 -18 37 -184 -515 -76 -252 -119
-409 -112 -411 6 -2 44 -5 84 -6 40 -1 81 -4 91 -6 9 -2 77 -6 151 -10 74 -4
151 -8 170 -10 19 -2 91 -6 160 -10 69 -4 129 -9 134 -12 4 -3 6 -31 2 -62 -3
-31 -9 -83 -13 -116 -8 -81 -10 -99 -12 -106 0 -3 -18 -5 -38 -3 -21 1 -78 5
-128 9 -49 3 -117 8 -150 10 -33 2 -105 7 -160 10 -55 4 -122 9 -150 11 -27 2
-95 6 -150 9 l-100 6 -84 -253 c-46 -139 -113 -340 -149 -446 l-65 -194 -71 7
c-39 4 -78 9 -87 10 -8 2 -42 6 -74 9 -33 4 -60 8 -62 10 -2 1 13 50 33 107
20 57 87 254 149 437 l114 332 -27 1 c-15 1 -45 2 -67 3 -22 2 -103 6 -180 10
-77 4 -160 9 -185 11 -25 2 -111 7 -192 10 -115 5 -148 4 -148 -6 0 -11 -43
-147 -155 -494 -23 -71 -59 -185 -81 -253 l-39 -123 -60 7 c-74 8 -94 11 -170
19 -33 3 -61 8 -63 10 -2 2 7 39 21 82 14 43 75 236 137 428 61 193 113 355
115 362 2 6 -4 11 -13 11 -15 -1 -177 6 -437 17 -38 2 -92 4 -119 4 l-48 1 6
133 c7 135 12 170 24 163 6 -4 132 -11 387 -21 55 -3 144 -7 197 -10 58 -3 99
-2 103 4 3 6 32 99 65 208 32 109 82 275 110 368 82 269 101 337 97 341 -2 2
-35 6 -73 8 -38 3 -114 8 -169 11 -55 3 -119 8 -142 10 -23 2 -99 7 -170 11
-70 4 -139 8 -153 9 -14 1 -32 3 -41 4 -13 1 -16 9 -13 39 5 46 12 166 13 210
l1 34 133 -7 c72 -3 155 -8 182 -10 28 -2 95 -6 150 -9 203 -13 261 -16 323
-21 34 -2 62 -3 62 -2 0 7 309 918 314 926 4 6 23 8 44 6 20 -2 84 -7 141 -10
58 -3 106 -7 108 -8 2 -2 -32 -109 -75 -238 -162 -481 -213 -634 -219 -649
-12 -29 -8 -45 12 -46 11 -1 83 -4 160 -8 77 -4 163 -9 190 -11 28 -2 104 -7
170 -10 66 -4 148 -8 183 -10 34 -2 62 -3 62 -1 0 2 67 184 150 406 82 222
146 406 142 410 -46 35 -164 106 -230 139 -81 41 -256 104 -317 115 -16 3 -41
8 -55 11 -180 37 -534 39 -726 4 -165 -31 -400 -156 -618 -329 -133 -106 -368
-329 -515 -490 -41 -45 -53 -48 -27 -7 47 73 53 196 12 257 -49 74 -126 91
-213 48 -56 -27 -161 -129 -203 -195 -34 -52 -35 -50 -31 57 3 84 27 165 81
275 78 158 103 239 119 384 28 264 -141 472 -419 515 -54 8 -144 12 -185 9z"/>
<path d="M3095 3023 c-14 -48 -35 -117 -46 -153 -12 -36 -22 -72 -24 -80 -8
-32 -177 -585 -181 -592 -3 -5 7 -8 23 -9 15 -1 42 -2 58 -4 17 -2 100 -6 185
-10 85 -4 175 -8 200 -10 25 -2 108 -7 185 -11 l140 -6 151 458 c83 253 150
460 149 462 -3 3 -24 5 -270 17 -66 3 -154 8 -195 10 -41 2 -136 7 -212 10
l-136 7 -27 -89z"/>
</g>
</svg>
